<svg width="80" height="80" viewBox="0 0 80 80" fill="none" xmlns="http://www.w3.org/2000/svg">
<path d="M40 22.5C30.3516 22.5 22.5 30.3516 22.5 40C22.5 49.6484 30.3516 57.5 40 57.5C49.6484 57.5 57.5 49.6484 57.5 40C57.5 30.3516 49.6484 22.5 40 22.5ZM40 52.5C33.0956 52.5 27.5 46.9044 27.5 40C27.5 33.0956 33.0956 27.5 40 27.5C46.9044 27.5 52.5 33.0956 52.5 40C52.5 46.9044 46.9044 52.5 40 52.5ZM40 17.5C41.3802 17.5 42.5 16.3802 42.5 15V10C42.5 8.61984 41.3802 7.5 40 7.5C38.6198 7.5 37.5 8.61984 37.5 10V15C37.5 16.3802 38.6198 17.5 40 17.5ZM40 62.5C38.6198 62.5 37.5 63.6198 37.5 65V70C37.5 71.3802 38.6198 72.5 40 72.5C41.3802 72.5 42.5 71.3802 42.5 70V65C42.5 63.6198 41.3802 62.5 40 62.5ZM59.4434 24.0886L62.9786 20.5534C63.9552 19.5769 63.9552 17.9948 62.9786 17.0183C62.002 16.0417 60.42 16.0417 59.4434 17.0183L55.9083 20.5534C54.9317 21.53 54.9317 23.112 55.9083 24.0886C56.8848 25.0652 58.4669 25.0652 59.4434 24.0886ZM20.5566 55.9116L17.0214 59.4467C16.0448 60.4231 16.0448 62.0052 17.0214 62.9817C17.998 63.9583 19.58 63.9583 20.5566 62.9817L24.0917 59.4467C25.0683 58.4669 25.0683 56.888 24.0917 55.9116C23.1153 54.9348 21.5331 54.9316 20.5566 55.9116ZM17.5 40C17.5 38.6198 16.3802 37.5 15 37.5H10C8.61984 37.5 7.5 38.6198 7.5 40C7.5 41.3802 8.61984 42.5 10 42.5H15C16.3802 42.5 17.5 41.3802 17.5 40ZM70 37.5H65C63.6198 37.5 62.5 38.6198 62.5 40C62.5 41.3802 63.6198 42.5 65 42.5H70C71.3802 42.5 72.5 41.3802 72.5 40C72.5 38.6198 71.3802 37.5 70 37.5ZM20.5533 24.0886C21.53 25.0652 23.112 25.0652 24.0884 24.0886C25.0652 23.112 25.0652 21.53 24.0884 20.5534L20.5533 17.0183C19.5767 16.0417 17.9948 16.0417 17.0181 17.0183C16.0416 17.9948 16.0416 19.5769 17.0181 20.5534L20.5533 24.0886ZM59.4467 55.9081C58.4669 54.9316 56.888 54.9316 55.9116 55.9081C54.9348 56.8847 54.9317 58.4667 55.9116 59.4433L59.4467 62.9784C60.4231 63.955 62.0052 63.955 62.9817 62.9784C63.9583 62.0019 63.9583 60.4198 62.9817 59.4433L59.4467 55.9081Z" fill="white"/>
</svg>
